# xmcd
#
# Track frame offsets: 
#        150
#        15195
#        31042
#        52642
#        70694
#        89934
#        105336
#        126174
#        144772
#        168003
#        179697
#        197505
#        221432
#        236428
#
# Disc length: 3345 seconds
#
# Revision: 1
# Processed by: cddbd v1.5.2PL0 Copyright (c) Steve Scherf et al.
# Submitted via: ExactAudioCopy v0.99pb4
#
DISCID=a60d0f0e
DTITLE=Various Artist - Робинзон
DYEAR=1900
DGENRE=Pop
TTITLE0=Боярский Михаил - Робинзон
TTITLE1=Малежик Вячеслав - Двести Лет
TTITLE2=Пугачёва Алла - Белая Дверь
TTITLE3=Боярский Михаил - Всё Пройдёт
TTITLE4=Пугачёва Алла - Отраженье В Воде
TTITLE5=ВИА 'Лейся, песня' - Плоская Планета
TTITLE6=Пугачёва Алла - Ты На Свете Есть
TTITLE7=Боярский Михаил - Городские Цветы
TTITLE8=ВИА 'Красные маки' - Если Ты Уйдёшь
TTITLE9=Рузавина Т., Таюшев С. - Два Белых Снега
TTITLE10=Пугачёва Алла - Если Звёзды Молчат
TTITLE11=Мяги Тынис - Сердце Не Спит
TTITLE12=Рождественская Жанна - Гадалка
TTITLE13=Боярский Михаил - Рыжий Конь
EXTD=
EXTT0=
EXTT1=
EXTT2=
EXTT3=
EXTT4=
EXTT5=
EXTT6=
EXTT7=
EXTT8=
EXTT9=
EXTT10=
EXTT11=
EXTT12=
EXTT13=
PLAYORDER=
